<svg width="1583" height="136" viewBox="0 0 1583 136" fill="none" xmlns="http://www.w3.org/2000/svg">
<g filter="url(#filter0_d_761_494)">
<path d="M29.2719 111.2V46.616H3.99992V29.04H74.8239V46.616H49.5519V111.2H29.2719ZM88.3131 111.2V29.04H108.593V60.032H141.041V29.04H161.321V111.2H141.041V77.92H108.593V111.2H88.3131ZM180.02 111.2V29.04H239.82V46.304H200.092V61.072H237.22V78.024H200.092V93.832H241.692V111.2H180.02ZM298.332 111.2V29.04H331.82C338.337 29.04 344.092 30.0107 349.084 31.952C354.076 33.824 358.271 36.528 361.668 40.064C365.135 43.6 367.735 47.8987 369.468 52.96C371.271 58.0213 372.172 63.7413 372.172 70.12C372.172 76.4987 371.271 82.2187 369.468 87.28C367.735 92.3413 365.135 96.64 361.668 100.176C358.271 103.712 354.076 106.416 349.084 108.288C344.092 110.229 338.337 111.2 331.82 111.2H298.332ZM318.196 93.728H329.948C333.068 93.728 335.945 93.2427 338.58 92.272C341.215 91.3013 343.468 89.8453 345.34 87.904C347.281 85.9627 348.807 83.536 349.916 80.624C351.025 77.6427 351.58 74.1413 351.58 70.12C351.58 66.0987 351.025 62.632 349.916 59.72C348.807 56.7387 347.281 54.2773 345.34 52.336C343.468 50.3947 341.215 48.9387 338.58 47.968C335.945 46.9973 333.068 46.512 329.948 46.512H318.196V93.728ZM387.5 111.2V29.04H447.3V46.304H407.572V61.072H444.7V78.024H407.572V93.832H449.172V111.2H387.5ZM463.213 51.192C463.213 47.1707 464.079 43.6693 465.813 40.688C467.546 37.6373 469.938 35.1067 472.989 33.096C476.039 31.0853 479.645 29.56 483.805 28.52C487.965 27.48 492.506 26.96 497.429 26.96C503.253 26.96 508.869 27.6533 514.277 29.04C519.685 30.3573 524.469 32.368 528.629 35.072L520.413 51.816C517.639 49.6667 514.346 47.968 510.533 46.72C506.719 45.472 502.837 44.848 498.885 44.848C494.586 44.848 491.154 45.4027 488.589 46.512C486.023 47.552 484.741 49.1813 484.741 51.4C484.741 53.688 486.37 55.56 489.629 57.016C492.887 58.472 497.914 60.24 504.709 62.32C508.314 63.4293 511.642 64.712 514.693 66.168C517.813 67.624 520.517 69.392 522.805 71.472C525.093 73.552 526.895 76.0133 528.213 78.856C529.53 81.6987 530.189 85.0613 530.189 88.944C530.189 92.48 529.426 95.7387 527.901 98.72C526.375 101.701 524.157 104.267 521.245 106.416C518.333 108.565 514.727 110.229 510.429 111.408C506.199 112.656 501.346 113.28 495.869 113.28C489.698 113.28 483.631 112.552 477.669 111.096C471.775 109.64 466.437 107.595 461.653 104.96L470.285 87.592C473.613 89.9493 477.426 91.856 481.725 93.312C486.023 94.6987 490.426 95.392 494.933 95.392C499.578 95.392 502.975 94.8027 505.125 93.624C507.343 92.4453 508.453 90.712 508.453 88.424C508.453 87.1067 508.002 85.928 507.101 84.888C506.269 83.848 504.951 82.8773 503.149 81.976C501.415 81.0053 499.231 80.0693 496.597 79.168C494.031 78.2667 491.015 77.296 487.549 76.256C483.874 75.1467 480.546 73.864 477.565 72.408C474.583 70.8827 472.018 69.1493 469.869 67.208C467.789 65.1973 466.159 62.8747 464.981 60.24C463.802 57.6053 463.213 54.5893 463.213 51.192ZM545.53 111.2V29.04H565.81V111.2H545.53ZM581.704 70.12C581.704 63.7413 582.813 57.9173 585.032 52.648C587.32 47.3093 590.474 42.768 594.496 39.024C598.586 35.2107 603.405 32.264 608.952 30.184C614.568 28.0347 620.738 26.96 627.464 26.96C633.288 26.96 638.869 27.6533 644.208 29.04C649.546 30.3573 654.157 32.3333 658.04 34.968L650.344 51.712C647.778 49.632 644.658 48.0027 640.984 46.824C637.378 45.576 633.738 44.952 630.064 44.952C625.973 44.952 622.229 45.576 618.832 46.824C615.504 48.072 612.661 49.8053 610.304 52.024C607.946 54.2427 606.109 56.912 604.792 60.032C603.544 63.0827 602.92 66.4453 602.92 70.12C602.92 73.7947 603.544 77.192 604.792 80.312C606.04 83.432 607.773 86.136 609.992 88.424C612.28 90.6427 614.949 92.376 618 93.624C621.05 94.872 624.378 95.496 627.984 95.496C631.034 95.496 634.016 95.2187 636.928 94.664C639.84 94.04 642.058 93.312 643.584 92.48V79.584H627.672V63.464H661.68V103.192C659.808 104.787 657.589 106.173 655.024 107.352C652.458 108.6 649.65 109.675 646.6 110.576C643.618 111.477 640.394 112.136 636.928 112.552C633.53 113.037 630.029 113.28 626.424 113.28C619.976 113.28 614.013 112.24 608.536 110.16C603.058 108.08 598.344 105.133 594.392 101.32C590.44 97.5067 587.32 92.9653 585.032 87.696C582.813 82.3573 581.704 76.4987 581.704 70.12ZM679.374 111.2V29.04H699.134L735.222 82.288L734.182 62.528V29.04H753.526V111.2H733.766L697.678 57.952L698.718 77.712V111.2H679.374ZM772.198 111.2V29.04H831.998V46.304H792.27V61.072H829.398V78.024H792.27V93.832H833.87V111.2H772.198ZM869.647 111.2H849.991V29.04H888.991C893.637 29.04 897.797 29.664 901.471 30.912C905.215 32.0907 908.37 33.8587 910.935 36.216C913.57 38.504 915.581 41.3467 916.967 44.744C918.423 48.1413 919.151 51.9893 919.151 56.288C919.151 61.9733 917.938 66.8267 915.511 70.848C913.154 74.8 909.791 77.8507 905.423 80L923.727 111.2H901.471L885.975 83.328H869.647V111.2ZM869.647 46.2V66.376H887.015C890.69 66.376 893.602 65.544 895.751 63.88C897.97 62.1467 899.079 59.616 899.079 56.288C899.079 52.96 897.97 50.464 895.751 48.8C893.602 47.0667 890.69 46.2 887.015 46.2H869.647ZM984.349 49.632C982.685 49.632 981.125 49.3547 979.669 48.8C978.283 48.176 977.069 47.344 976.029 46.304C974.989 45.264 974.157 44.0853 973.533 42.768C972.979 41.3813 972.701 39.8907 972.701 38.296C972.701 36.7707 972.979 35.3147 973.533 33.928C974.157 32.5413 974.989 31.328 976.029 30.288C977.069 29.248 978.283 28.4507 979.669 27.896C981.125 27.272 982.685 26.96 984.349 26.96C986.013 26.96 987.539 27.272 988.925 27.896C990.381 28.4507 991.629 29.248 992.669 30.288C993.709 31.328 994.507 32.5413 995.061 33.928C995.685 35.3147 995.997 36.7707 995.997 38.296C995.997 39.8907 995.685 41.3813 995.061 42.768C994.507 44.0853 993.709 45.264 992.669 46.304C991.629 47.344 990.381 48.176 988.925 48.8C987.539 49.3547 986.013 49.632 984.349 49.632ZM974.677 57.12H994.021V111.2H974.677V57.12ZM1052.19 111.2V29.04H1090.98C1099.78 29.04 1106.68 30.9813 1111.67 34.864C1116.67 38.7467 1119.16 44.3627 1119.16 51.712C1119.16 55.9413 1118.16 59.5467 1116.15 62.528C1114.2 65.44 1111.43 67.416 1107.83 68.456C1112.33 69.2187 1115.83 71.1947 1118.33 74.384C1120.83 77.504 1122.07 81.872 1122.07 87.488C1122.07 94.8373 1119.61 100.627 1114.69 104.856C1109.84 109.085 1102.87 111.2 1093.79 111.2H1052.19ZM1071.63 61.904H1089.73C1092.5 61.904 1094.76 61.28 1096.49 60.032C1098.29 58.7147 1099.19 56.6 1099.19 53.688C1099.19 50.776 1098.29 48.696 1096.49 47.448C1094.76 46.1307 1092.5 45.472 1089.73 45.472H1071.63V61.904ZM1071.63 94.664H1092.33C1095.1 94.664 1097.39 93.936 1099.19 92.48C1101.07 91.024 1102 88.8747 1102 86.032C1102 83.1893 1101.07 81.04 1099.19 79.584C1097.39 78.128 1095.1 77.4 1092.33 77.4H1071.63V94.664ZM1138.21 111.2V29.04H1198.01V46.304H1158.28V61.072H1195.41V78.024H1158.28V93.832H1199.88V111.2H1138.21ZM1290.36 103.608C1288.14 105.272 1285.75 106.693 1283.18 107.872C1280.62 109.12 1277.95 110.125 1275.17 110.888C1272.4 111.72 1269.59 112.309 1266.75 112.656C1263.98 113.072 1261.27 113.28 1258.64 113.28C1251.98 113.28 1245.85 112.24 1240.23 110.16C1234.68 108.08 1229.86 105.133 1225.77 101.32C1221.75 97.5067 1218.6 92.9653 1216.31 87.696C1214.02 82.3573 1212.88 76.4987 1212.88 70.12C1212.88 63.7413 1214.02 57.9173 1216.31 52.648C1218.6 47.3093 1221.75 42.768 1225.77 39.024C1229.86 35.2107 1234.68 32.264 1240.23 30.184C1245.85 28.0347 1251.98 26.96 1258.64 26.96C1264.81 26.96 1270.49 27.7573 1275.69 29.352C1280.96 30.8773 1285.37 32.9573 1288.9 35.592L1279.33 53.376C1276.91 50.9493 1274 49.112 1270.6 47.864C1267.27 46.616 1263.8 45.992 1260.2 45.992C1256.66 45.992 1253.33 46.5467 1250.21 47.656C1247.16 48.7653 1244.49 50.36 1242.21 52.44C1239.92 54.52 1238.12 57.0507 1236.8 60.032C1235.48 63.0133 1234.82 66.376 1234.82 70.12C1234.82 73.864 1235.48 77.2267 1236.8 80.208C1238.12 83.1893 1239.92 85.72 1242.21 87.8C1244.49 89.88 1247.16 91.4747 1250.21 92.584C1253.33 93.6933 1256.66 94.248 1260.2 94.248C1264.01 94.248 1267.76 93.5893 1271.43 92.272C1275.1 90.9547 1278.16 89.0827 1280.58 86.656L1290.36 103.608ZM1298.59 70.12C1298.59 63.8107 1299.7 58.0213 1301.92 52.752C1304.14 47.4827 1307.22 42.9413 1311.18 39.128C1315.2 35.3147 1319.98 32.3333 1325.53 30.184C1331.08 28.0347 1337.18 26.96 1343.83 26.96C1350.49 26.96 1356.59 28.0347 1362.14 30.184C1367.68 32.3333 1372.43 35.3147 1376.38 39.128C1380.41 42.9413 1383.53 47.4827 1385.74 52.752C1387.96 58.0213 1389.07 63.8107 1389.07 70.12C1389.07 76.4293 1387.96 82.2187 1385.74 87.488C1383.53 92.7573 1380.41 97.2987 1376.38 101.112C1372.43 104.925 1367.68 107.907 1362.14 110.056C1356.59 112.205 1350.49 113.28 1343.83 113.28C1337.18 113.28 1331.08 112.205 1325.53 110.056C1319.98 107.907 1315.2 104.925 1311.18 101.112C1307.22 97.2987 1304.14 92.7573 1301.92 87.488C1299.7 82.2187 1298.59 76.4293 1298.59 70.12ZM1320.12 70.12C1320.12 73.864 1320.68 77.296 1321.78 80.416C1322.96 83.4667 1324.59 86.1013 1326.67 88.32C1328.75 90.4693 1331.25 92.168 1334.16 93.416C1337.07 94.5947 1340.3 95.184 1343.83 95.184C1347.37 95.184 1350.59 94.5947 1353.5 93.416C1356.42 92.168 1358.91 90.4693 1360.99 88.32C1363.07 86.1013 1364.67 83.4667 1365.78 80.416C1366.96 77.296 1367.54 73.864 1367.54 70.12C1367.54 66.376 1366.96 62.9787 1365.78 59.928C1364.67 56.808 1363.07 54.1733 1360.99 52.024C1358.91 49.8053 1356.42 48.1067 1353.5 46.928C1350.59 45.68 1347.37 45.056 1343.83 45.056C1340.3 45.056 1337.07 45.68 1334.16 46.928C1331.25 48.1067 1328.75 49.8053 1326.67 52.024C1324.59 54.1733 1322.96 56.808 1321.78 59.928C1320.68 62.9787 1320.12 66.376 1320.12 70.12ZM1404.69 111.2V29.04H1424.66L1450.77 73.032L1476.87 29.04H1496.84V111.2H1478.01V77.4L1479.05 57.12L1457.94 95.184H1443.59L1422.48 57.12L1423.52 77.4V111.2H1404.69ZM1515.6 111.2V29.04H1575.4V46.304H1535.67V61.072H1572.8V78.024H1535.67V93.832H1577.27V111.2H1515.6Z" fill="white"/>
</g>
<path d="M1343.06 49L1344.02 67.2869L1352.58 59.8098L1345.55 68.8678L1358.92 69.9359L1346.15 71.0895L1352.58 79.4212L1344.18 72.2431L1342.94 91L1341.94 72.5422L1334.11 79.4212L1340.53 71.0895L1326.92 69.9359L1341.01 68.6968L1334.11 59.8098L1341.94 66.8169L1343.06 49Z" fill="white"/>
<path d="M333.06 49L334.024 67.2869L342.576 59.8098L335.55 68.8678L348.92 69.9359L336.152 71.0895L342.576 79.4212L334.185 72.2431L332.94 91L331.936 72.5422L324.107 79.4212L330.531 71.0895L316.92 69.9359L331.013 68.6968L324.107 59.8098L331.936 66.8169L333.06 49Z" fill="white"/>
<defs>
<filter id="filter0_d_761_494" x="0" y="23.96" width="1581.27" height="94.32" filterUnits="userSpaceOnUse" color-interpolation-filters="sRGB">
<feFlood flood-opacity="0" result="BackgroundImageFix"/>
<feColorMatrix in="SourceAlpha" type="matrix" values="0 0 0 0 0 0 0 0 0 0 0 0 0 0 0 0 0 0 127 0" result="hardAlpha"/>
<feOffset dy="1"/>
<feGaussianBlur stdDeviation="2"/>
<feComposite in2="hardAlpha" operator="out"/>
<feColorMatrix type="matrix" values="0 0 0 0 0 0 0 0 0 0 0 0 0 0 0 0 0 0 0.5 0"/>
<feBlend mode="normal" in2="BackgroundImageFix" result="effect1_dropShadow_761_494"/>
<feBlend mode="normal" in="SourceGraphic" in2="effect1_dropShadow_761_494" result="shape"/>
</filter>
</defs>
</svg>
